<?xml version="1.0" encoding="utf-8"?>
<svg viewBox="4.884 19.553 490.233 465.913" xmlns="http://www.w3.org/2000/svg">
  <path d="M 424.026 259.617 C 441.916 259.794 461.003 252.66 473.796 240.939 C 502.266 214.843 502.219 172.337 473.683 146.183 C 448.111 122.749 437.959 93.913 396.635 88.492 C 387.743 87.326 360.183 88.521 346.529 77.698 C 334.929 68.507 328.828 54.708 322.902 47.392 C 306.402 27.021 277.346 19.59 249.67 19.553 C 249.617 19.553 249.571 19.553 249.516 19.553 C 221.883 19.553 195.616 29.078 176.471 47.225 C 152.799 69.67 170.916 102.068 132.35 116.487 C 116.17 122.538 87.471 128.781 69.017 145.695 C 60.08 153.887 55.366 165.865 56.414 177.747 C 57.268 187.388 62.644 196.681 70.799 202.604 C 77.321 207.346 83.126 209.876 87.794 211.907 C 88.492 212.214 89.177 212.514 89.865 212.816 C 95.381 215.279 99.368 217.056 103.968 221.011 C 112.059 227.96 116.613 237.348 116.789 247.449 C 116.958 256.971 113.006 266.148 105.942 272.618 C 99.677 278.359 92.456 281.661 82.523 283.336 C 80.478 283.682 78.411 284.012 76.325 284.341 C 59.735 286.959 40.925 289.927 26.222 303.407 C 12.428 316.045 4.849 332.88 4.884 350.811 C 4.919 368.7 12.538 385.514 26.334 398.156 C 40.077 410.75 58.233 417.843 77.465 418.124 C 96.878 418.403 115.016 411.744 128.537 399.353 L 129.347 398.594 C 132.582 395.526 137.974 390.169 140.542 387.385 C 141.915 385.894 143.376 384.436 144.881 383.059 C 159.377 369.775 177.665 363.708 193.8 366.832 C 203.813 368.767 217.506 375.258 225.929 395.221 L 226.268 396.006 C 234.334 415.148 245.386 441.364 263.127 457.623 C 282.672 475.536 308.668 485.423 336.331 485.466 L 336.509 485.466 C 364.142 485.466 390.083 475.633 409.563 457.783 C 429.228 439.761 440.267 416.461 440.647 392.178 C 441.035 367.615 430.528 344.228 411.063 326.32 L 410.486 325.802 C 402.464 318.698 396.546 313.381 394.633 311.546 C 383.028 300.481 384.335 281.631 397.547 269.523 C 405.017 262.681 413.414 259.509 424.026 259.617 Z" style="fill: rgb(234, 244, 254);" transform="matrix(-1, 0, 0, -1, 500.000671, 505.018982)"/>
</svg>